<?xml version="1.0" standalone="no"?>
<!DOCTYPE svg PUBLIC "-//W3C//DTD SVG 20010904//EN"
 "http://www.w3.org/TR/2001/REC-SVG-20010904/DTD/svg10.dtd">
<svg version="1.0" xmlns="http://www.w3.org/2000/svg"
 width="512.000000pt" height="512.000000pt" viewBox="0 0 512.000000 512.000000"
 preserveAspectRatio="xMidYMid meet">

<g transform="translate(0.000000,512.000000) scale(0.100000,-0.100000)"
fill="#000000" stroke="none">
<path d="M1063 5101 c-77 -26 -116 -57 -275 -219 -177 -180 -193 -208 -193
-337 0 -75 4 -98 24 -140 20 -40 371 -397 1755 -1783 1005 -1005 1745 -1739
1765 -1748 27 -13 41 -14 68 -6 27 8 87 2 295 -28 l261 -39 51 -50 c62 -61 96
-76 142 -61 40 14 64 48 64 95 0 29 -10 46 -58 98 l-58 62 -37 250 c-29 192
-36 265 -31 313 l7 64 -1729 1730 c-968 968 -1751 1744 -1779 1762 -87 57
-180 69 -272 37z m145 -191 c17 0 402 -379 402 -394 0 -6 -93 -105 -208 -219
l-207 -207 -197 197 c-167 168 -197 204 -203 236 -4 22 -3 49 4 65 17 41 291
311 326 322 17 5 39 7 50 5 11 -3 26 -5 33 -5z m1977 -1960 l1420 -1420 -73
-72 -72 -73 -1228 1228 c-1196 1196 -1228 1227 -1265 1227 -72 0 -120 -62 -97
-126 6 -17 513 -532 1231 -1249 l1219 -1220 -70 -70 -70 -70 -1423 1423 -1422
1422 210 210 c115 115 212 210 215 210 3 0 644 -639 1425 -1420z m1484 -1800
c10 -69 18 -126 16 -128 -3 -4 -248 30 -254 35 -3 2 44 53 104 113 60 60 110
108 112 107 1 -2 11 -59 22 -127z"/>
<path d="M1648 4094 c-57 -31 -66 -107 -19 -155 40 -40 89 -40 133 0 27 24 33
36 33 71 0 35 -6 47 -33 71 -36 32 -72 36 -114 13z"/>
<path d="M153 4385 c-17 -7 -36 -22 -42 -34 -15 -27 -16 -4274 -1 -4302 28
-52 -100 -49 2185 -49 1868 0 2119 2 2145 15 37 19 50 43 50 92 0 37 -42 80
-2113 2151 -1161 1162 -2124 2120 -2139 2128 -33 17 -44 17 -85 -1z m609 -889
c-72 -78 -78 -133 -20 -181 49 -42 89 -35 154 27 l55 52 196 -197 197 -196
-52 -55 c-64 -67 -69 -106 -23 -158 24 -27 36 -33 70 -33 36 0 47 7 94 53 l52
52 198 -198 197 -198 -45 -44 c-68 -66 -77 -125 -28 -175 20 -19 36 -25 69
-25 37 0 49 6 96 49 l54 50 194 -194 194 -194 -41 -44 c-22 -24 -46 -54 -53
-67 -30 -56 27 -140 95 -140 26 0 45 11 90 52 l57 51 196 -196 196 -196 -52
-55 c-60 -63 -68 -103 -31 -150 48 -61 107 -54 179 19 l44 45 198 -197 198
-198 -45 -45 c-70 -72 -78 -124 -28 -175 20 -19 36 -25 69 -25 37 0 49 6 96
49 l54 50 255 -255 254 -254 -505 0 -505 0 -1417 1417 -1418 1418 0 115 0 115
1313 -1313 c1246 -1245 1314 -1312 1347 -1312 65 0 114 60 103 125 -4 24 -297
322 -1384 1410 l-1379 1380 0 245 0 245 252 -252 252 -252 -42 -45z m813
-2026 l760 -760 -763 0 -762 0 0 760 c0 418 1 760 3 760 1 0 344 -342 762
-760z"/>
<path d="M3181 554 c-13 -9 -29 -32 -37 -50 -26 -63 24 -134 94 -134 46 0 102
55 102 100 0 45 -56 100 -102 100 -18 0 -44 -7 -57 -16z"/>
</g>
</svg>
